<svg t="1719235921462" class="icon" viewBox="0 0 1024 1024" version="1.1" xmlns="http://www.w3.org/2000/svg" p-id="38869" width="48" height="48"><path d="M299.5712 147.2l-23.9616-30.6176a481.7408 481.7408 0 0 0-238.5408 491.7248 37.376 37.376 0 0 0 43.7248 30.72 39.2192 39.2192 0 0 0 31.8976-44.4928 404.7872 404.7872 0 0 1 200.704-411.136l-18.8928-33.3824 23.808 30.72-18.7392-33.536zM643.0208 916.9408a406.7328 406.7328 0 0 1-256.8704 1.6896 38.4 38.4 0 1 0-23.9616 73.0112 479.5904 479.5904 0 0 0 149.8624 23.8592c53.2992 0 105.728-8.704 155.904-25.856a38.4512 38.4512 0 0 0-24.9344-72.704zM776.0896 133.4784a38.2976 38.2976 0 0 0-53.1968 10.9056 38.3488 38.3488 0 0 0 10.9056 53.1968 403.2 403.2 0 0 1 179.8144 378.7264c-0.6144 5.7344-1.2288 11.52-2.0992 17.152a38.4 38.4 0 1 0 75.8784 11.52 473.1904 473.1904 0 0 0 5.12-69.9392 479.744 479.744 0 0 0-216.4224-401.5616z" fill="#438CFF" p-id="38870"></path><path d="M530.5856 102.3488m-93.8496 0a93.8496 93.8496 0 1 0 187.6992 0 93.8496 93.8496 0 1 0-187.6992 0Z" fill="#438CFF" p-id="38871"></path><path d="M843.1104 716.8a93.8496 93.8496 0 1 0 0 187.7504 93.8496 93.8496 0 0 0 0-187.7504zM177.7664 726.4768a93.8496 93.8496 0 1 0 0 187.7504 93.8496 93.8496 0 0 0 0-187.7504z" fill="#438CFF" p-id="38872"></path></svg>