<svg t="1719234976185" class="icon" viewBox="0 0 1024 1024" version="1.1" xmlns="http://www.w3.org/2000/svg" p-id="31573" width="48" height="48"><path d="M384 320v96c0 19.2-12.8 32-32 32S320 435.2 320 416V320h-32c-19.2 0-32-12.8-32-32s12.8-32 32-32h128c19.2 0 32 12.8 32 32s-12.8 32-32 32H384zM160 128h704c19.2 0 32 12.8 32 32v704c0 19.2-12.8 32-32 32h-704c-19.2 0-32-12.8-32-32v-704c0-19.2 12.8-32 32-32z m64 64c-19.2 0-32 12.8-32 32v576c0 19.2 12.8 32 32 32h576c19.2 0 32-12.8 32-32v-576c0-19.2-12.8-32-32-32h-576z m384 576c19.2 0 32-12.8 32-32s-12.8-32-32-32-32 12.8-32 32 12.8 32 32 32z m128 0c19.2 0 32-12.8 32-32s-12.8-32-32-32-32 12.8-32 32 12.8 32 32 32z" fill="#1890FF" p-id="31574"></path></svg>